ffmpeg version 3.4.8-0ubuntu0.2 Copyright (c) 2000-2020 the FFmpeg developers
  built with gcc 7 (Ubuntu 7.5.0-3ubuntu1~18.04)
  configuration: --prefix=/usr --extra-version=0ubuntu0.2 --toolchain=hardened --libdir=/usr/lib/x86_64-linux-gnu --incdir=/usr/include/x86_64-linux-gnu --enable-gpl --disable-stripping --enable-avresample --enable-avisynth --enable-gnutls --enable-ladspa --enable-libass --enable-libbluray --enable-libbs2b --enable-libcaca --enable-libcdio --enable-libflite --enable-libfontconfig --enable-libfreetype --enable-libfribidi --enable-libgme --enable-libgsm --enable-libmp3lame --enable-libmysofa --enable-libopenjpeg --enable-libopenmpt --enable-libopus --enable-libpulse --enable-librubberband --enable-librsvg --enable-libshine --enable-libsnappy --enable-libsoxr --enable-libspeex --enable-libssh --enable-libtheora --enable-libtwolame --enable-libvorbis --enable-libvpx --enable-libwavpack --enable-libwebp --enable-libx265 --enable-libxml2 --enable-libxvid --enable-libzmq --enable-libzvbi --enable-omx --enable-openal --enable-opengl --enable-sdl2 --enable-libdc1394 --enable-libdrm --enable-libiec61883 --enable-chromaprint --enable-frei0r --enable-libopencv --enable-libx264 --enable-shared
  libavutil      55. 78.100 / 55. 78.100
  libavcodec     57.107.100 / 57.107.100
  libavformat    57. 83.100 / 57. 83.100
  libavdevice    57. 10.100 / 57. 10.100
  libavfilter     6.107.100 /  6.107.100
  libavresample   3.  7.  0 /  3.  7.  0
  libswscale      4.  8.100 /  4.  8.100
  libswresample   2.  9.100 /  2.  9.100
  libpostproc    54.  7.100 / 54.  7.100
[rawvideo @ 0x55de33c52a20] Estimating duration from bitrate, this may be inaccurate
Input #0, rawvideo, from '../../SVC-Encoder-20220109T061506Z-001/SVC-Encoder/Dataset/RollerCoaster/6f_2x2/tile_yuv/f1_t2_480x480.yuv':
  Duration: 00:00:10.00, start: 0.000000, bitrate: 82944 kb/s
    Stream #0:0: Video: rawvideo (I420 / 0x30323449), yuv420p, 480x480, 82944 kb/s, 30 tbr, 30 tbn, 30 tbc
Stream mapping:
  Stream #0:0 -> #0:0 (rawvideo (native) -> h264 (libx264))
Press [q] to stop, [?] for help
[libx264 @ 0x55de33c5fc60] using cpu capabilities: MMX2 SSE2Fast LZCNT SSSE3 SSE4.2 AVX
[libx264 @ 0x55de33c5fc60] profile High, level 3.0
Output #0, rawvideo, to 'RollerCoaster_f1_t2_480x480_x264_QP_28.h264':
  Metadata:
    encoder         : Lavf57.83.100
    Stream #0:0: Video: h264 (libx264), yuv420p, 480x480, q=-1--1, 30 fps, 30 tbn, 30 tbc
    Metadata:
      encoder         : Lavc57.107.100 libx264
    Side data:
      cpb: bitrate max/min/avg: 0/0/0 buffer size: 0 vbv_delay: -1
frame=   97 fps=0.0 q=34.0 PSNR=Y:nan U:nan V:nan *:nan size=     145kB time=00:00:01.80 bitrate= 659.0kbits/s speed=3.59x    frame=  160 fps=158 q=34.0 PSNR=Y:nan U:nan V:nan *:nan size=     256kB time=00:00:03.90 bitrate= 537.7kbits/s speed=3.85x    frame=  220 fps=145 q=34.0 PSNR=Y:nan U:nan V:nan *:nan size=     256kB time=00:00:05.90 bitrate= 355.4kbits/s speed= 3.9x    frame=  285 fps=141 q=34.0 PSNR=Y:nan U:nan V:nan *:nan size=     512kB time=00:00:08.06 bitrate= 520.0kbits/s speed=3.98x    frame=  300 fps=123 q=34.0 LPSNR=Y:inf U:inf V:inf *:inf size=     684kB time=00:00:09.93 bitrate= 563.7kbits/s speed=4.07x    
video:684kB audio:0kB subtitle:0kB other streams:0kB global headers:0kB muxing overhead: 0.000000%
[libx264 @ 0x55de33c5fc60] frame I:2     Avg QP:26.26  size: 27693  PSNR Mean Y:39.47 U:45.25 V:46.00 Avg:40.73 Global:40.68
[libx264 @ 0x55de33c5fc60] frame P:76    Avg QP:28.20  size:  5818  PSNR Mean Y:37.65 U:44.76 V:45.47 Avg:39.04 Global:38.99
[libx264 @ 0x55de33c5fc60] frame B:222   Avg QP:33.48  size:   912  PSNR Mean Y:36.78 U:44.56 V:45.27 Avg:38.22 Global:38.20
[libx264 @ 0x55de33c5fc60] consecutive B-frames:  1.3%  0.0%  0.0% 98.7%
[libx264 @ 0x55de33c5fc60] mb I  I16..4:  8.3% 70.4% 21.3%
[libx264 @ 0x55de33c5fc60] mb P  I16..4:  0.4%  2.6%  0.5%  P16..4: 39.0% 24.1% 12.0%  0.0%  0.0%    skip:21.5%
[libx264 @ 0x55de33c5fc60] mb B  I16..4:  0.0%  0.2%  0.0%  B16..8: 38.0%  6.3%  0.7%  direct: 0.7%  skip:54.1%  L0:38.7% L1:52.9% BI: 8.4%
[libx264 @ 0x55de33c5fc60] 8x8 transform intra:73.0% inter:67.0%
[libx264 @ 0x55de33c5fc60] coded y,uvDC,uvAC intra: 75.7% 75.9% 28.5% inter: 11.4% 5.8% 0.1%
[libx264 @ 0x55de33c5fc60] i16 v,h,dc,p: 26% 20% 28% 26%
[libx264 @ 0x55de33c5fc60] i8 v,h,dc,ddl,ddr,vr,hd,vl,hu: 14% 11% 16% 13%  7% 11%  6% 10% 13%
[libx264 @ 0x55de33c5fc60] i4 v,h,dc,ddl,ddr,vr,hd,vl,hu: 24% 16% 16%  9%  7%  8%  6%  9%  6%
[libx264 @ 0x55de33c5fc60] i8c dc,h,v,p: 51% 11% 21% 17%
[libx264 @ 0x55de33c5fc60] Weighted P-Frames: Y:0.0% UV:0.0%
[libx264 @ 0x55de33c5fc60] ref P L0: 56.0% 19.2% 19.0%  5.8%
[libx264 @ 0x55de33c5fc60] ref B L0: 86.3% 11.9%  1.9%
[libx264 @ 0x55de33c5fc60] ref B L1: 88.6% 11.4%
[libx264 @ 0x55de33c5fc60] PSNR Mean Y:37.023 U:44.616 V:45.325 Avg:38.446 Global:38.403 kb/s:559.98
